HIERARCHY
ROOT Hips
{
    OFFSET   0.000000   0.000000   0.000000
    CHANNELS 6 Xposition Yposition Zposition Zrotation Xrotation Yrotation
    JOINT Chest
    {
        OFFSET   0.000000   8.007240   0.000000
        CHANNELS 3 Zrotation Xrotation Yrotation
        JOINT Chest2
        {
            OFFSET   0.000000  22.077100   0.000000
            CHANNELS 3 Zrotation Xrotation Yrotation
            JOINT Neck
            {
                OFFSET   0.000000  23.254800   0.000000
                CHANNELS 3 Zrotation Xrotation Yrotation
                JOINT Head
                {
                    OFFSET   0.000000  14.370000   1.956600
                    CHANNELS 3 Zrotation Xrotation Yrotation
                    End Site
                    {
                        OFFSET   0.000000  19.566000   0.000000
                    }
                }
            }
            JOINT LeftCollar
            {
                OFFSET   3.911900  19.017000  -0.467064
                CHANNELS 3 Zrotation Xrotation Yrotation
                JOINT LeftShoulder
                {
                    OFFSET  10.383700   0.000000   0.000000
                    CHANNELS 3 Zrotation Xrotation Yrotation
                    JOINT LeftElbow
                    {
                        OFFSET  26.662100   0.001476   0.000517
                        CHANNELS 3 Zrotation Xrotation Yrotation
                        JOINT LeftWrist
                        {
                            OFFSET  28.869000  -0.000025  -0.000106
                            CHANNELS 3 Zrotation Xrotation Yrotation
                            JOINT LeftFinger0
                            {
                                OFFSET   2.044660  -2.323460   3.252850
                                CHANNELS 3 Zrotation Xrotation Yrotation
                                JOINT LeftFinger01
                                {
                                    OFFSET   3.088130   0.000000   0.000000
                                    CHANNELS 3 Zrotation Xrotation Yrotation
                                    JOINT LeftFinger02
                                    {
                                        OFFSET   2.639460   0.000000   0.000000
                                        CHANNELS 3 Zrotation Xrotation Yrotation
                                        End Site
                                        {
                                            OFFSET   2.582190   0.000000   0.000000
                                        }
                                    }
                                }
                            }
                            JOINT LeftFinger1
                            {
                                OFFSET   8.364480   0.000000   3.252850
                                CHANNELS 3 Zrotation Xrotation Yrotation
                                JOINT LeftFinger11
                                {
                                    OFFSET   4.646930   0.000000   0.000000
                                    CHANNELS 3 Zrotation Xrotation Yrotation
                                    JOINT LeftFinger12
                                    {
                                        OFFSET   2.323460   0.000000   0.000000
                                        CHANNELS 3 Zrotation Xrotation Yrotation
                                        End Site
                                        {
                                            OFFSET   2.273050   0.000000   0.000000
                                        }
                                    }
                                }
                            }
                            JOINT LeftFinger2
                            {
                                OFFSET   8.364490   0.000015   1.078090
                                CHANNELS 3 Zrotation Xrotation Yrotation
                                JOINT LeftFinger21
                                {
                                    OFFSET   5.111620   0.000000   0.000000
                                    CHANNELS 3 Zrotation Xrotation Yrotation
                                    JOINT LeftFinger22
                                    {
                                        OFFSET   2.788160   0.000016   0.000000
                                        CHANNELS 3 Zrotation Xrotation Yrotation
                                        End Site
                                        {
                                            OFFSET   2.727660   0.000000   0.000000
                                        }
                                    }
                                }
                            }
                            JOINT LeftFinger3
                            {
                                OFFSET   7.899780   0.000017  -1.078090
                                CHANNELS 3 Zrotation Xrotation Yrotation
                                JOINT LeftFinger31
                                {
                                    OFFSET   4.646930   0.000000   0.000000
                                    CHANNELS 3 Zrotation Xrotation Yrotation
                                    JOINT LeftFinger32
                                    {
                                        OFFSET   2.323470   0.000000   0.000000
                                        CHANNELS 3 Zrotation Xrotation Yrotation
                                        End Site
                                        {
                                            OFFSET   2.273050   0.000000   0.000000
                                        }
                                    }
                                }
                            }
                            JOINT LeftFinger4
                            {
                                OFFSET   7.435090   0.000000  -3.252850
                                CHANNELS 3 Zrotation Xrotation Yrotation
                                JOINT LeftFinger41
                                {
                                    OFFSET   3.717550   0.000000   0.000000
                                    CHANNELS 3 Zrotation Xrotation Yrotation
                                    JOINT LeftFinger42
                                    {
                                        OFFSET   1.858770   0.000000   0.000000
                                        CHANNELS 3 Zrotation Xrotation Yrotation
                                        End Site
                                        {
                                            OFFSET   1.818440   0.000000   0.000000
                                        }
                                    }
                                }
                            }
                        }
                    }
                }
            }
            JOINT RightCollar
            {
                OFFSET  -3.911900  19.017000  -0.467063
                CHANNELS 3 Zrotation Xrotation Yrotation
                JOINT RightShoulder
                {
                    OFFSET -10.383700   0.000019   0.000000
                    CHANNELS 3 Zrotation Xrotation Yrotation
                    JOINT RightElbow
                    {
                        OFFSET -26.662100   0.001175   0.000102
                        CHANNELS 3 Zrotation Xrotation Yrotation
                        JOINT RightWrist
                        {
                            OFFSET -28.869000   0.000016  -0.000079
                            CHANNELS 3 Zrotation Xrotation Yrotation
                            JOINT RightFinger0
                            {
                                OFFSET  -2.044660  -2.323490   3.252850
                                CHANNELS 3 Zrotation Xrotation Yrotation
                                JOINT RightFinger01
                                {
                                    OFFSET  -3.088140   0.000000   0.000000
                                    CHANNELS 3 Zrotation Xrotation Yrotation
                                    JOINT RightFinger02
                                    {
                                        OFFSET  -2.639460   0.000000   0.000000
                                        CHANNELS 3 Zrotation Xrotation Yrotation
                                        End Site
                                        {
                                            OFFSET  -2.582190   0.000000   0.000000
                                        }
                                    }
                                }
                            }
                            JOINT RightFinger1
                            {
                                OFFSET  -8.364480   0.000000   3.252850
                                CHANNELS 3 Zrotation Xrotation Yrotation
                                JOINT RightFinger11
                                {
                                    OFFSET  -4.646930   0.000000   0.000000
                                    CHANNELS 3 Zrotation Xrotation Yrotation
                                    JOINT RightFinger12
                                    {
                                        OFFSET  -2.323470   0.000000   0.000000
                                        CHANNELS 3 Zrotation Xrotation Yrotation
                                        End Site
                                        {
                                            OFFSET  -2.273050   0.000000   0.000000
                                        }
                                    }
                                }
                            }
                            JOINT RightFinger2
                            {
                                OFFSET  -8.364480   0.000000   1.078090
                                CHANNELS 3 Zrotation Xrotation Yrotation
                                JOINT RightFinger21
                                {
                                    OFFSET  -5.111620   0.000000   0.000000
                                    CHANNELS 3 Zrotation Xrotation Yrotation
                                    JOINT RightFinger22
                                    {
                                        OFFSET  -2.788160   0.000000   0.000000
                                        CHANNELS 3 Zrotation Xrotation Yrotation
                                        End Site
                                        {
                                            OFFSET  -2.727660   0.000000   0.000000
                                        }
                                    }
                                }
                            }
                            JOINT RightFinger3
                            {
                                OFFSET  -7.899780   0.000000  -1.078090
                                CHANNELS 3 Zrotation Xrotation Yrotation
                                JOINT RightFinger31
                                {
                                    OFFSET  -4.646930   0.000000   0.000000
                                    CHANNELS 3 Zrotation Xrotation Yrotation
                                    JOINT RightFinger32
                                    {
                                        OFFSET  -2.323470   0.000000   0.000000
                                        CHANNELS 3 Zrotation Xrotation Yrotation
                                        End Site
                                        {
                                            OFFSET  -2.273050   0.000000   0.000000
                                        }
                                    }
                                }
                            }
                            JOINT RightFinger4
                            {
                                OFFSET  -7.435090   0.000000  -3.252850
                                CHANNELS 3 Zrotation Xrotation Yrotation
                                JOINT RightFinger41
                                {
                                    OFFSET  -3.717550   0.000000   0.000000
                                    CHANNELS 3 Zrotation Xrotation Yrotation
                                    JOINT RightFinger42
                                    {
                                        OFFSET  -1.858770   0.000000   0.000000
                                        CHANNELS 3 Zrotation Xrotation Yrotation
                                        End Site
                                        {
                                            OFFSET  -1.818440   0.000000   0.000000
                                        }
                                    }
                                }
                            }
                        }
                    }
                }
            }
        }
    }
    JOINT LeftHip
    {
        OFFSET   9.783040   0.000000   0.000000
        CHANNELS 3 Zrotation Xrotation Yrotation
        JOINT LeftKnee
        {
            OFFSET   0.000032 -41.789100  -0.002222
            CHANNELS 3 Zrotation Xrotation Yrotation
            JOINT LeftAnkle
            {
                OFFSET   0.000087 -41.133200  -0.000135
                CHANNELS 3 Zrotation Xrotation Yrotation
                JOINT LeftToe
                {
                    OFFSET   0.000000  -6.358960  14.674500
                    CHANNELS 3 Zrotation Xrotation Yrotation
                    End Site
                    {
                        OFFSET   0.000000   0.000000   3.913200
                    }
                }
            }
        }
    }
    JOINT RightHip
    {
        OFFSET  -9.783040   0.000000   0.000000
        CHANNELS 3 Zrotation Xrotation Yrotation
        JOINT RightKnee
        {
            OFFSET   0.000047 -41.789100  -0.000896
            CHANNELS 3 Zrotation Xrotation Yrotation
            JOINT RightAnkle
            {
                OFFSET  -0.000117 -41.133300  -0.000248
                CHANNELS 3 Zrotation Xrotation Yrotation
                JOINT RightToe
                {
                    OFFSET   0.000000  -6.358970  14.674500
                    CHANNELS 3 Zrotation Xrotation Yrotation
                    End Site
                    {
                        OFFSET   0.000000   0.000000   3.913200
                    }
                }
            }
        }
    }
}
MOTION
Frames: 5
Frame Time:   0.016667
 -0.684638  89.566700  -0.858591  -1.916870  -1.917740   2.954370   1.294930   1.662590  -1.206050   2.626220   3.297100  -2.450910   1.038460   0.135193  -0.012781   1.706160   0.273872   2.535820  -3.906720   2.999120   1.108990 -72.442200  17.679500  -7.360740  -2.232350  -5.561620  -6.483350   5.236520  -9.591550   8.093480  40.370800  27.943800 -67.473400 -14.936700  -0.000339   0.005297  -2.468400   0.001451   0.004643 -25.526700   4.704170  -9.744520 -21.213800  -0.005491   0.003769 -14.849600  -0.004511  -0.001375 -24.762400   2.877190  -6.210520 -24.918500  -0.001447   0.004225 -16.595700  -0.012777   0.004722 -24.832800   0.919625  -1.986420 -24.848800  -0.014047   0.003852 -16.549200  -0.011551   0.003323 -27.915900   0.168313  -0.317721 -41.874700  -0.001858   0.006909 -27.888500  -0.001468  -0.002356   3.389760   0.616818   7.760660  75.077700   7.083580   3.012480   1.618400  -3.149300   4.989390 -10.044800 -10.166000   5.975470 -44.554700  34.638900  74.250400  19.436200  -0.003619   0.001352   4.717740  -0.002619   0.002546  26.126600   4.965950  10.009100  21.732400   0.003652  -0.004527  15.212300   0.002826   0.002408  24.557500   4.020910   8.740190  24.865100   0.006914   0.003801  16.551100   0.005116   0.002540  24.707000   2.197870   4.765250  24.788300   0.000150  -0.014180  16.512300   0.000083   0.006470  26.261800   1.464010   2.974380  39.449400   0.007055  -0.003508  26.273300   0.004656   0.010316   2.164200   5.062850   2.502740   1.395310   0.160257  10.434200  -2.614180  -2.331780   1.259820  -0.000000   0.000000   0.000000   1.939920   0.804781  -4.267800   1.119680   4.018200  -9.046430  -3.306130  -3.079910  -4.010110  -0.000000   0.000000  -0.000000
 -0.683413  89.566700  -0.862953  -1.916360  -1.928610   2.952740   1.294830   1.668200  -1.203090   2.626030   3.308390  -2.445170   1.059650   0.157824  -0.012732   1.740980   0.319792   2.476810  -3.908520   3.003670   1.108790 -72.452800  17.644500  -7.364030  -2.231920  -5.628850  -6.483950   5.243140  -9.718920   8.108250  40.369400  27.941700 -67.472200 -14.944600  -0.000339   0.005308  -2.472340   0.001443   0.004642 -25.538000   4.695790  -9.723350 -21.221600  -0.005485   0.003765 -14.855100  -0.004507  -0.001376 -24.772900   2.869650  -6.190530 -24.928000  -0.001442   0.004208 -16.602000  -0.012779   0.004719 -24.844400   0.912828  -1.971150 -24.860200  -0.014047   0.003828 -16.556800  -0.011551   0.003326 -27.930000   0.159029  -0.300012 -41.895700  -0.001850   0.006910 -27.902500  -0.001428  -0.002355   3.391780   0.612976   7.763620  75.077600   7.075870   3.017650   1.620920  -3.192600   4.986220 -10.044700 -10.160000   5.979090 -44.545500  34.622800  74.230200  19.436200  -0.003615   0.001355   4.717670  -0.002597   0.002540  26.123100   4.963400  10.005600  21.729200   0.003657  -0.004525  15.210200   0.002829   0.002410  24.553400   4.020950   8.737460  24.860800   0.006927   0.003803  16.551200   0.005124   0.002540  24.703000   2.197570   4.764800  24.788300   0.000156  -0.014191  16.512400   0.000087   0.006471  26.254300   1.464010   2.972720  39.438200   0.007062  -0.003515  26.265900   0.004662   0.010313   2.164970   5.074710   2.502910   1.393490   0.148690  10.440800  -2.613920  -2.318920   1.259840  -0.000000   0.000000  -0.000000   1.940670   0.813749  -4.263580   1.119710   4.019170  -9.046350  -3.305590  -3.074590  -4.006400  -0.000000   0.000000   0.000000
 -0.680803  89.566600  -0.870095  -1.915530  -1.947280   2.948980   1.294790   1.676860  -1.200140   2.626100   3.325760  -2.439440   1.093800   0.199510  -0.012683   1.797160   0.404284   2.382080  -3.913990   3.013360   1.108590 -72.475700  17.573800  -7.365850  -2.229840  -5.765810  -6.484490   5.249470  -9.920280   8.130450  40.359600  27.926700 -67.464200 -14.959500  -0.000344   0.005320  -2.479770   0.001429   0.004641 -25.558900   4.687490  -9.696950 -21.237400  -0.005471   0.003755 -14.866200  -0.004496  -0.001382 -24.789600   2.862100  -6.170530 -24.943900  -0.001430   0.004166 -16.612700  -0.012786   0.004712 -24.862600   0.904387  -1.950800 -24.878100  -0.014047   0.003769 -16.568800  -0.011551   0.003333 -27.949600   0.144583  -0.272493 -41.925100  -0.001829   0.006914 -27.922100  -0.001340  -0.002354   3.395890   0.607670   7.771110  75.077500   7.059430   3.026480   1.624210  -3.307200   4.978900 -10.043700 -10.154000   5.988120 -44.521000  34.573600  74.165300  19.436200  -0.003598   0.001357   4.717530  -0.002541   0.002525  26.116600   4.957000   9.995740  21.723100   0.003668  -0.004521  15.206200   0.002836   0.002421  24.547100   4.021040   8.728750  24.854200   0.006957   0.003814  16.551400   0.005147   0.002540  24.696900   2.195430   4.761660  24.788300   0.000173  -0.014216  16.512700   0.000097   0.006475  26.239600   1.464020   2.967090  39.416300   0.007080  -0.003530  26.251300   0.004675   0.010302   2.168030   5.093140   2.503140   1.388660   0.137122  10.451200  -2.613760  -2.301250   1.259850  -0.000000   0.000000   0.000000   1.941880   0.828264  -4.257340   1.119790   4.020580  -9.046200  -3.304790  -3.066700  -4.000850   0.000000   0.000000  -0.000000
 -0.677581  89.566500  -0.875576  -1.918120  -1.963460   2.942550   1.295610   1.682630  -1.200270   2.627940   3.337310  -2.439760   1.119200   0.240290  -0.012698   1.838810   0.486719   2.314800  -3.924420   3.025020   1.109130 -72.500500  17.504400  -7.360190  -2.222510  -5.913390  -6.473260   5.243360 -10.048900   8.144160  40.312100  27.867700 -67.430800 -14.973300  -0.000361   0.005318  -2.486660   0.001415   0.004655 -25.580400   4.690860  -9.693510 -21.255100  -0.005449   0.003740 -14.878500  -0.004477  -0.001395 -24.800100   2.864210  -6.171370 -24.954600  -0.001414   0.004101 -16.619800  -0.012798   0.004701 -24.869900   0.903291  -1.947410 -24.885300  -0.014047   0.003680 -16.573700  -0.011550   0.003345 -27.953700   0.138525  -0.260978 -41.931300  -0.001796   0.006922 -27.926200  -0.001216  -0.002354   3.401100   0.605662   7.782820  75.077400   7.045530   3.033690   1.625840  -3.490650   4.968660 -10.041100 -10.155900   6.002230 -44.476500  34.477500  74.036100  19.436300  -0.003562   0.001335   4.717390  -0.002452   0.002501  26.109200   4.946860   9.978890  21.715800   0.003679  -0.004520  15.201100   0.002847   0.002442  24.542600   4.014630   8.713070  24.849100   0.006998   0.003838  16.551600   0.005183   0.002543  24.693700   2.185590   4.741620  24.789000   0.000198  -0.014245  16.513000   0.000111   0.006482  26.221700   1.458540   2.955870  39.389100   0.007109  -0.003548  26.233200   0.004691   0.010284   2.175070   5.105780   2.503260   1.381040   0.137977  10.458700  -2.616230  -2.294890   1.257200  -0.000000   0.000000   0.000000   1.942760   0.838540  -4.253470   1.119950   4.021250  -9.045980  -3.304350  -3.062530  -3.997170   0.000000   0.000000   0.000000
 -0.673544  89.566500  -0.880827  -1.922170  -1.980150   2.937390   1.297930   1.686910  -1.201160   2.632660   3.345800  -2.441830   1.142230   0.287634  -0.012713   1.876530   0.582416   2.250130  -3.936310   3.040270   1.112820 -72.540900  17.394200  -7.344990  -2.216280  -6.119800  -6.455440   5.233560 -10.183500   8.152540  40.214300  27.720500 -67.319900 -14.992600  -0.000388   0.005314  -2.496290   0.001395   0.004680 -25.607000   4.694230  -9.690070 -21.277000  -0.005421   0.003721 -14.893900  -0.004452  -0.001411 -24.815500   2.866310  -6.172200 -24.970300  -0.001396   0.004020 -16.630200  -0.012813   0.004685 -24.885400   0.902196  -1.944020 -24.901000  -0.014048   0.003574 -16.584100  -0.011550   0.003361 -27.960100   0.127020  -0.239240 -41.941200  -0.001757   0.006932 -27.932800  -0.001083  -0.002354   3.406580   0.605107   7.796910  75.078100   7.013810   3.041740   1.624400  -3.719730   4.956300 -10.037600 -10.170500   6.018780 -44.433100  34.373200  73.894000  19.436300  -0.003519   0.001294   4.717310  -0.002341   0.002469  26.103200   4.935070   9.958250  21.709300   0.003696  -0.004518  15.196500   0.002862   0.002470  24.542000   4.002920   8.692040  24.846400   0.007052   0.003871  16.551700   0.005230   0.002550  24.693400   2.171770   4.711520  24.790200   0.000230  -0.014284  16.513200   0.000131   0.006491  26.205200   1.449760   2.942680  39.363800   0.007146  -0.003570  26.216300   0.004713   0.010260   2.182520   5.115470   2.503320   1.374220   0.143983  10.464200  -2.620120  -2.293340   1.252210   0.000000   0.000000  -0.000000   1.943690   0.849162  -4.251620   1.120070   4.021710  -9.045840  -3.304060  -3.059310  -3.995330   0.000000   0.000000   0.000000
